# xmcd
#
# Track frame offsets:
#	150
#	11613
#	21943
#	34206
#	46133
#	55590
#	66958
#	78763
#	88705
#	100023
#	110553
#	123013
#	136396
#	147010
#
# Disc length: 2095 seconds
#
# Revision: 0
# Processed by: cddbd v1.5.2PL0 Copyright (c) Steve Scherf et al.
# Submitted via: audiograbber 1.83.01
#
DISCID=ac082d0e
DTITLE=Lloyd Price - Specialty Profiles
DYEAR=2006
DGENRE=Classic R&B
TTITLE0=Lawdy Miss Clawdy
TTITLE1=Tell Me Pretty Baby
TTITLE2=Ain't It a Shame
TTITLE3=Oooh-Oooh-Oooh
TTITLE4=Where You At?
TTITLE5=Oo-Ee Baby
TTITLE6=Restless Heart
TTITLE7=Mailman Blues
TTITLE8=Tryin' to Find Someone to Love
TTITLE9=Let Me Come Home Baby
TTITLE10=If Crying Was Murder
TTITLE11=What's the Matter Now?
TTITLE12=Lord, Lord, Amen
TTITLE13=Rock 'n' Roll Dance
EXTD=
EXTT0=
EXTT1=
EXTT2=
EXTT3=
EXTT4=
EXTT5=
EXTT6=
EXTT7=
EXTT8=
EXTT9=
EXTT10=
EXTT11=
EXTT12=
EXTT13=
PLAYORDER=
